<svg xmlns="http://www.w3.org/2000/svg" viewBox="0 0 64 64" role="img" aria-label="MD Renov'">
  <rect width="64" height="64" rx="14" fill="#ffffff"/>
  <g transform="translate(9 4) scale(1.03)">
    <path d="M15.098 23.0364L0 30.9729V6.03622H18.0692V21.4714L15.9735 22.58V14.6062H15.098V23.0364Z" fill="#C50000"/>
    <path d="M18.0692 26.0359L15.9735 27.1351V23.5674L18.0692 22.4682V26.0359Z" fill="#C50000"/>
    <path d="M18.0692 36.5713L15.9735 37.6705V28.1225L18.0692 27.0233V36.5713Z" fill="#C50000"/>
    <path d="M0 31.9603L15.098 24.0238V27.6008L8.54095 31.0474L8.94145 31.8206L15.098 28.5882V38.1363L9.07184 41.3034L9.48166 42.0766L15.098 39.1237V50.6H0V31.9603Z" fill="#C50000"/>
    <path d="M18.0692 37.5587V50.5999H15.9735V38.6672L18.0692 37.5587Z" fill="#C50000"/>
    <path d="M44.5582 23.6326V50.6H18.9447V37.1023L33.279 29.5663V35.7889H34.1545V29.1006L44.5582 23.6326Z" fill="#C50000"/>
    <path d="M18.9447 26.5669L33.279 19.0309V28.5789L18.9447 36.1149V26.5669Z" fill="#C50000"/>
    <path d="M18.9447 6.03622H33.279V18.0435L18.9447 25.5794V22.0024L31.5466 15.3793L31.1367 14.6062L18.9447 21.015V6.03622Z" fill="#C50000"/>
    <path d="M44.5582 6.03622V12.1097L34.1544 17.5777V6.03622H44.5582Z" fill="#C50000"/>
    <path d="M34.1544 18.5651L44.5582 13.0971V22.6451L34.1544 28.1131V18.5651Z" fill="#C50000"/>
  </g>
</svg>
